<svg xmlns="http://www.w3.org/2000/svg" viewBox="0 0 880 460" width="880" height="460" font-family="system-ui,-apple-system,Segoe UI,sans-serif">
<text x="112" y="26" font-size="17" font-weight="600" fill="#888">Accuracy by where the correct answer sits</text>
<text x="112" y="45" font-size="12.5" fill="#888">Same 1,763 items, same five judges, same prompt. Only the correct answer moves.</text>
<line x1="112" y1="366.0" x2="596" y2="366.0" stroke="#888" stroke-width="0.6" opacity="0.4"/>
<text x="102" y="370.0" font-size="12" fill="#888" text-anchor="end">0.00</text>
<line x1="112" y1="289.0" x2="596" y2="289.0" stroke="#888" stroke-width="0.6" opacity="0.4" stroke-dasharray="4 4"/>
<text x="102" y="293.0" font-size="12" fill="#888" text-anchor="end">0.25</text>
<line x1="112" y1="212.0" x2="596" y2="212.0" stroke="#888" stroke-width="0.6" opacity="0.4"/>
<text x="102" y="216.0" font-size="12" fill="#888" text-anchor="end">0.50</text>
<line x1="112" y1="135.0" x2="596" y2="135.0" stroke="#888" stroke-width="0.6" opacity="0.4"/>
<text x="102" y="139.0" font-size="12" fill="#888" text-anchor="end">0.75</text>
<line x1="112" y1="58.0" x2="596" y2="58.0" stroke="#888" stroke-width="0.6" opacity="0.4"/>
<text x="102" y="62.0" font-size="12" fill="#888" text-anchor="end">1.00</text>
<text x="118" y="282.0" font-size="11.5" fill="#888">chance, one of four</text>
<text x="112.0" y="392" font-size="15" fill="#888" text-anchor="middle" font-weight="600">A</text>
<text x="273.3" y="392" font-size="15" fill="#888" text-anchor="middle" font-weight="600">B</text>
<text x="434.7" y="392" font-size="15" fill="#888" text-anchor="middle" font-weight="600">C</text>
<text x="596.0" y="392" font-size="15" fill="#888" text-anchor="middle" font-weight="600">D</text>
<text x="354.0" y="414" font-size="12.5" fill="#888" text-anchor="middle">position of the correct answer among the four candidates</text>
<polyline points="112.0,91.2 273.3,117.2 434.7,271.0 596.0,282.3" fill="none" stroke="#1b9e77" stroke-width="2.4"/>
<circle cx="112.0" cy="91.2" r="3.6" fill="#1b9e77"/>
<circle cx="273.3" cy="117.2" r="3.6" fill="#1b9e77"/>
<circle cx="434.7" cy="271.0" r="3.6" fill="#1b9e77"/>
<circle cx="596.0" cy="282.3" r="3.6" fill="#1b9e77"/>
<polyline points="112.0,109.5 273.3,212.3 434.7,243.0 596.0,284.6" fill="none" stroke="#d95f02" stroke-width="2.4"/>
<circle cx="112.0" cy="109.5" r="3.6" fill="#d95f02"/>
<circle cx="273.3" cy="212.3" r="3.6" fill="#d95f02"/>
<circle cx="434.7" cy="243.0" r="3.6" fill="#d95f02"/>
<circle cx="596.0" cy="284.6" r="3.6" fill="#d95f02"/>
<polyline points="112.0,136.1 273.3,191.8 434.7,220.5 596.0,211.4" fill="none" stroke="#7570b3" stroke-width="2.4"/>
<circle cx="112.0" cy="136.1" r="3.6" fill="#7570b3"/>
<circle cx="273.3" cy="191.8" r="3.6" fill="#7570b3"/>
<circle cx="434.7" cy="220.5" r="3.6" fill="#7570b3"/>
<circle cx="596.0" cy="211.4" r="3.6" fill="#7570b3"/>
<polyline points="112.0,155.8 273.3,164.4 434.7,177.0 596.0,174.7" fill="none" stroke="#e7298a" stroke-width="2.4"/>
<circle cx="112.0" cy="155.8" r="3.6" fill="#e7298a"/>
<circle cx="273.3" cy="164.4" r="3.6" fill="#e7298a"/>
<circle cx="434.7" cy="177.0" r="3.6" fill="#e7298a"/>
<circle cx="596.0" cy="174.7" r="3.6" fill="#e7298a"/>
<polyline points="112.0,219.4 273.3,170.9 434.7,148.0 596.0,140.3" fill="none" stroke="#66a61e" stroke-width="2.4"/>
<circle cx="112.0" cy="219.4" r="3.6" fill="#66a61e"/>
<circle cx="273.3" cy="170.9" r="3.6" fill="#66a61e"/>
<circle cx="434.7" cy="148.0" r="3.6" fill="#66a61e"/>
<circle cx="596.0" cy="140.3" r="3.6" fill="#66a61e"/>
<text x="610" y="286.3" font-size="12.5" fill="#1b9e77">Skywork-Critic-Llama-3.1-8B</text>
<text x="610" y="300.3" font-size="11" fill="#888">moves 0.6205</text>
<text x="610" y="312.3" font-size="12.5" fill="#d95f02">Qwen2.5-7B-Instruct</text>
<text x="610" y="326.3" font-size="11" fill="#888">moves 0.5683</text>
<text x="610" y="215.4" font-size="12.5" fill="#7570b3">Con-J-Qwen2-7B</text>
<text x="610" y="229.4" font-size="11" fill="#888">moves 0.2740</text>
<text x="610" y="178.7" font-size="12.5" fill="#e7298a">RISE-Judge-Qwen2.5-7B</text>
<text x="610" y="192.7" font-size="11" fill="#888">moves 0.0686</text>
<text x="610" y="144.3" font-size="12.5" fill="#66a61e">Llama-3-OffsetBias-8B</text>
<text x="610" y="158.3" font-size="11" fill="#888">moves 0.2569</text>
<text x="112" y="426" font-size="12" fill="#888">An unparseable verdict scores 0 here; upstream credits it 0.25. RewardBench 2, five subsets, best-of-4.</text>
<text x="112" y="444" font-size="12" fill="#888">Upstream draws this position from an unseeded call, so a published score is one sample from these four.</text>
</svg>
